<?xml version="1.0" encoding="utf-8"?>
<!-- Generator: Adobe Illustrator 23.1.1, SVG Export Plug-In . SVG Version: 6.00 Build 0)  -->
<svg version="1.1" xmlns="http://www.w3.org/2000/svg" xmlns:xlink="http://www.w3.org/1999/xlink" x="0px" y="0px"
	 viewBox="0 0 300 380.57" style="enable-background:new 0 0 300 380.57;" xml:space="preserve">
<style type="text/css">
	.st0{fill:#FFFFFF;}
	.st1{fill:url(#SVGID_1_);}
	.st2{fill:url(#SVGID_2_);}
	.st3{fill:url(#SVGID_3_);}
	.st4{fill:url(#SVGID_4_);}
	.st5{fill:url(#SVGID_5_);}
	.st6{fill:url(#SVGID_6_);}
</style>
<g id="BG">
</g>
<g id="Alphabet_1_">
	<g>
		<g>
			<path class="st0" d="M48.73,306.63h6.69v12.85c-1.72,1.3-3.71,2.29-5.97,2.99c-2.26,0.69-4.54,1.04-6.83,1.04
				c-3.29,0-6.24-0.7-8.87-2.1s-4.68-3.35-6.17-5.83c-1.49-2.49-2.24-5.3-2.24-8.44c0-3.14,0.75-5.95,2.24-8.44
				c1.49-2.49,3.57-4.43,6.22-5.83c2.65-1.4,5.64-2.1,8.96-2.1c2.77,0,5.29,0.47,7.55,1.4s4.16,2.29,5.7,4.07l-4.7,4.34
				c-2.26-2.38-4.99-3.57-8.19-3.57c-2.02,0-3.81,0.42-5.38,1.27c-1.57,0.84-2.79,2.04-3.66,3.57c-0.88,1.54-1.31,3.3-1.31,5.29
				c0,1.96,0.44,3.71,1.31,5.25c0.87,1.54,2.09,2.74,3.64,3.6c1.55,0.86,3.32,1.29,5.31,1.29c2.11,0,4.01-0.45,5.7-1.36V306.63z"/>
			<path class="st0" d="M62.21,291.3h7.33v31.66h-7.33V291.3z"/>
			<path class="st0" d="M84.37,297.18v8.37h14.66v5.88H84.37v11.53h-7.33V291.3h23.93v5.88H84.37z"/>
			<path class="st0" d="M129.56,320.88v2.08h-21.85V291.3h21.17v2.08h-18.86v12.48h16.87v2.04h-16.87v12.98H129.56z"/>
			<path class="st0" d="M157.55,314.05h-18.36l-4.03,8.91h-2.49l14.56-31.66h2.31l14.56,31.66h-2.49L157.55,314.05z M156.69,312.1
				l-8.32-18.27l-8.28,18.27H156.69z"/>
			<path class="st0" d="M195.64,291.3v31.66h-1.9l-21.58-27.5v27.5h-2.31V291.3h1.94l21.53,27.5v-27.5H195.64z"/>
			<path class="st0" d="M206.67,291.3h12.53c3.29,0,6.2,0.68,8.75,2.04c2.55,1.36,4.53,3.23,5.95,5.63c1.42,2.4,2.13,5.12,2.13,8.16
				c0,3.05-0.71,5.77-2.13,8.16c-1.42,2.4-3.4,4.27-5.95,5.63c-2.55,1.36-5.47,2.04-8.75,2.04h-12.53V291.3z M219.02,320.88
				c2.92,0,5.5-0.58,7.74-1.74c2.23-1.16,3.95-2.78,5.16-4.86c1.21-2.08,1.81-4.46,1.81-7.15c0-2.68-0.6-5.07-1.81-7.15
				c-1.21-2.08-2.93-3.7-5.16-4.86c-2.23-1.16-4.81-1.74-7.74-1.74h-10.04v27.5H219.02z"/>
			<path class="st0" d="M249.06,321.08c-2.5-1.4-4.47-3.32-5.9-5.77c-1.43-2.44-2.15-5.17-2.15-8.19c0-3.01,0.72-5.74,2.15-8.19
				c1.43-2.44,3.4-4.37,5.9-5.77s5.31-2.1,8.41-2.1c3.11,0,5.91,0.69,8.41,2.08c2.5,1.39,4.47,3.3,5.9,5.74s2.15,5.19,2.15,8.23
				c0,3.05-0.72,5.79-2.15,8.23s-3.4,4.36-5.9,5.74c-2.5,1.39-5.31,2.08-8.41,2.08C254.36,323.19,251.56,322.49,249.06,321.08z
				 M264.66,319.25c2.14-1.21,3.83-2.87,5.07-5c1.24-2.13,1.85-4.5,1.85-7.12s-0.62-5-1.85-7.12c-1.24-2.13-2.93-3.79-5.07-5
				s-4.54-1.81-7.19-1.81c-2.65,0-5.06,0.6-7.21,1.81s-3.85,2.87-5.09,5c-1.24,2.13-1.85,4.5-1.85,7.12s0.62,5,1.85,7.12
				c1.24,2.13,2.93,3.79,5.09,5s4.56,1.81,7.21,1.81C260.12,321.06,262.52,320.46,264.66,319.25z"/>
		</g>
		<g>
			<linearGradient id="SVGID_1_" gradientUnits="userSpaceOnUse" x1="91.6192" y1="134.0244" x2="233.2377" y2="134.0244">
				<stop  offset="0" style="stop-color:#91C5C8"/>
				<stop  offset="1" style="stop-color:#787FAF"/>
			</linearGradient>
			<path class="st1" d="M208.18,81.67l-24.22,20.75c-3.69-4.3-8.26-7.64-13.71-10.02c-5.45-2.37-11.5-3.56-18.18-3.56
				c-6.98,0-13.78,1.34-20.41,4c-6.63,2.66-12.65,6.26-18.04,10.77c-5.4,4.51-9.97,9.85-13.73,15.99
				c-3.76,6.15-6.25,12.7-7.47,19.66c-1.23,6.96-1.05,13.51,0.54,19.66c1.59,6.15,4.28,11.51,8.07,16.11
				c3.79,4.59,8.53,8.22,14.22,10.88c0.35,0.16,0.69,0.32,1.04,0.47c-0.84-1.99-1.55-4.06-2.12-6.24
				c-1.59-6.15-1.77-12.7-0.54-19.66c1.23-6.96,3.72-13.51,7.47-19.66c3.76-6.15,8.33-11.48,13.73-15.99
				c5.39-4.52,11.41-8.11,18.04-10.77c6.63-2.66,13.43-4,20.41-4c6.68,0,12.74,1.19,18.18,3.56c5.44,2.38,10.01,5.72,13.71,10.02
				l28.06-24.04c-6.29-7.27-14.04-12.99-23.25-17.14C209.39,82.18,208.79,81.92,208.18,81.67z"/>
			<linearGradient id="SVGID_2_" gradientUnits="userSpaceOnUse" x1="183.9614" y1="101.0042" x2="233.2378" y2="101.0042">
				<stop  offset="0" style="stop-color:#A9CACE"/>
				<stop  offset="0.0749" style="stop-color:#B4CCD0"/>
				<stop  offset="0.2883" style="stop-color:#CDD0D5"/>
				<stop  offset="0.5093" style="stop-color:#E0D3D9"/>
				<stop  offset="0.741" style="stop-color:#EAD4DB"/>
				<stop  offset="1" style="stop-color:#EED5DC"/>
			</linearGradient>
			<polygon class="st2" points="183.96,102.42 205.18,123.63 233.24,99.59 212.02,78.37 			"/>
			<linearGradient id="SVGID_3_" gradientUnits="userSpaceOnUse" x1="137.7175" y1="179.9363" x2="199.3855" y2="179.9363">
				<stop  offset="0" style="stop-color:#91C5C8"/>
				<stop  offset="1" style="stop-color:#9BBCE3"/>
			</linearGradient>
			<polygon class="st3" points="137.72,169.45 159,190.42 199.39,190.42 178.3,169.5 			"/>
			<path class="st0" d="M158.25,55c11.28,0,21.52,2.08,30.74,6.23c9.21,4.16,16.96,9.87,23.25,17.14l-28.06,24.04
				c-3.69-4.3-8.26-7.64-13.71-10.02c-5.45-2.37-11.5-3.56-18.18-3.56c-6.98,0-13.78,1.34-20.41,4
				c-6.63,2.66-12.65,6.26-18.04,10.77c-5.4,4.51-9.97,9.85-13.73,15.99c-3.76,6.15-6.25,12.7-7.47,19.66
				c-1.23,6.96-1.05,13.51,0.54,19.66c1.59,6.15,4.28,11.51,8.07,16.11c3.79,4.59,8.53,8.22,14.22,10.88c5.69,2.66,12.02,4,19,4
				c8.31,0,16.27-1.8,23.88-5.4c7.61-3.6,14.33-8.48,20.17-14.64h-40.52l5.97-33.84h16.7h33.84h33.62c-0.1,0.59-0.17,1.15-0.18,1.67
				c-0.02,0.52-0.08,1.08-0.18,1.67c-2.04,11.58-6.19,22.49-12.45,32.73c-6.26,10.24-13.88,19.18-22.87,26.83
				c-8.99,7.65-19,13.69-30.03,18.14c-11.03,4.45-22.33,6.68-33.9,6.68c-11.58,0-22.09-2.23-31.55-6.68
				c-9.46-4.45-17.33-10.5-23.63-18.14c-6.3-7.64-10.77-16.59-13.41-26.83c-2.65-10.24-2.95-21.15-0.91-32.73
				c2.04-11.58,6.19-22.48,12.45-32.73c6.26-10.24,13.88-19.18,22.87-26.83c8.99-7.64,19-13.69,30.03-18.14
				C135.37,57.23,146.67,55,158.25,55z"/>
			<g>
				<linearGradient id="SVGID_4_" gradientUnits="userSpaceOnUse" x1="78.6201" y1="190.4994" x2="249.1144" y2="190.4994">
					<stop  offset="0" style="stop-color:#A9CACE"/>
					<stop  offset="0.0749" style="stop-color:#B4CCD0"/>
					<stop  offset="0.2883" style="stop-color:#CDD0D5"/>
					<stop  offset="0.5093" style="stop-color:#E0D3D9"/>
					<stop  offset="0.741" style="stop-color:#EAD4DB"/>
					<stop  offset="1" style="stop-color:#EED5DC"/>
				</linearGradient>
				<path class="st4" d="M227.9,136.03c-0.1,0.59-0.17,1.15-0.18,1.67c-0.02,0.52-0.08,1.08-0.18,1.67
					c-2.04,11.58-6.19,22.49-12.45,32.73c-6.26,10.24-13.88,19.18-22.87,26.83c-8.99,7.65-19,13.69-30.03,18.14
					c-11.03,4.45-22.33,6.68-33.9,6.68c-11.58,0-22.09-2.23-31.55-6.68c-6.87-3.24-12.91-7.32-18.11-12.25l18.86,18.86
					c0.72,0.75,0.95,1.49,1.7,2.2l0.55,1.06v-0.07c5.35,4.55,11.24,8.35,17.72,11.4c9.46,4.45,20.22,6.68,31.8,6.68
					c11.58,0,23-2.23,34.03-6.68c11.03-4.45,21.09-10.5,30.09-18.14c8.99-7.64,16.65-16.59,22.91-26.83
					c6.26-10.24,10.42-21.15,12.46-32.73c0.1-0.59,0.17-1.15,0.19-1.67c0.01-0.52,0.08-1.07,0.19-1.67L227.9,136.03z"/>
				<linearGradient id="SVGID_5_" gradientUnits="userSpaceOnUse" x1="74.9643" y1="201.6758" x2="76.0754" y2="201.6758">
					<stop  offset="0" style="stop-color:#A9CACE"/>
					<stop  offset="0.0749" style="stop-color:#B4CCD0"/>
					<stop  offset="0.2883" style="stop-color:#CDD0D5"/>
					<stop  offset="0.5093" style="stop-color:#E0D3D9"/>
					<stop  offset="0.741" style="stop-color:#EAD4DB"/>
					<stop  offset="1" style="stop-color:#EED5DC"/>
				</linearGradient>
				<path class="st5" d="M75.05,201.12h-0.08l1.11,1.11C75.73,201.87,75.39,201.57,75.05,201.12z"/>
			</g>
		</g>
	</g>
</g>
</svg>
